<mxfile host="Electron" agent="Mozilla/5.0 (Macintosh; Intel Mac OS X 10_15_7) AppleWebKit/537.36 (KHTML, like Gecko) draw.io/26.0.9 Chrome/128.0.6613.186 Electron/32.2.5 Safari/537.36" version="26.0.9" pages="2">
  <diagram name="Use-Case" id="exDWXhalaeswrfYcm-SV">
    <mxGraphModel dx="742" dy="962" grid="1" gridSize="10" guides="1" tooltips="1" connect="1" arrows="1" fold="1" page="1" pageScale="1" pageWidth="827" pageHeight="1169" math="0" shadow="0">
      <root>
        <mxCell id="0" />
        <mxCell id="1" parent="0" />
        <mxCell id="qsJK6AAeVhbRkGVkMpIS-1" value="Пользователь&lt;div&gt;&lt;br&gt;&lt;/div&gt;" style="shape=umlActor;verticalLabelPosition=bottom;verticalAlign=top;html=1;" parent="1" vertex="1">
          <mxGeometry x="90" y="170" width="30" height="60" as="geometry" />
        </mxCell>
        <mxCell id="qsJK6AAeVhbRkGVkMpIS-3" value="&lt;span style=&quot;caret-color: rgb(0, 0, 0); text-align: start;&quot;&gt;&lt;font style=&quot;font-size: 14px;&quot; face=&quot;Helvetica&quot;&gt;Посмотреть кофейни поблизости&lt;/font&gt;&lt;/span&gt;" style="ellipse;whiteSpace=wrap;html=1;" parent="1" vertex="1">
          <mxGeometry x="200" y="40" width="160" height="80" as="geometry" />
        </mxCell>
        <mxCell id="qsJK6AAeVhbRkGVkMpIS-4" value="&lt;span style=&quot;caret-color: rgb(0, 0, 0); text-align: start;&quot;&gt;&lt;font style=&quot;font-size: 14px;&quot; face=&quot;Helvetica&quot;&gt;Посмотреть&amp;nbsp;&lt;/font&gt;&lt;/span&gt;&lt;div&gt;&lt;span style=&quot;caret-color: rgb(0, 0, 0); text-align: start;&quot;&gt;&lt;font style=&quot;font-size: 14px;&quot; face=&quot;Helvetica&quot;&gt;подробную информацию о кофейне&lt;/font&gt;&lt;/span&gt;&lt;/div&gt;" style="ellipse;whiteSpace=wrap;html=1;" parent="1" vertex="1">
          <mxGeometry x="200" y="130" width="160" height="80" as="geometry" />
        </mxCell>
        <mxCell id="qsJK6AAeVhbRkGVkMpIS-33" style="edgeStyle=orthogonalEdgeStyle;rounded=0;orthogonalLoop=1;jettySize=auto;html=1;exitX=1;exitY=0.5;exitDx=0;exitDy=0;endArrow=none;startFill=0;startArrow=block;" parent="1" source="qsJK6AAeVhbRkGVkMpIS-5" edge="1">
          <mxGeometry relative="1" as="geometry">
            <mxPoint x="580" y="129.97297297297297" as="targetPoint" />
          </mxGeometry>
        </mxCell>
        <mxCell id="qsJK6AAeVhbRkGVkMpIS-5" value="&lt;div style=&quot;&quot;&gt;&lt;span style=&quot;font-size: 14px;&quot;&gt;Управлять списком избранных кофеен&lt;/span&gt;&lt;/div&gt;" style="ellipse;whiteSpace=wrap;html=1;align=center;" parent="1" vertex="1">
          <mxGeometry x="400" y="90" width="160" height="80" as="geometry" />
        </mxCell>
        <mxCell id="qsJK6AAeVhbRkGVkMpIS-6" value="&lt;div style=&quot;&quot;&gt;&lt;span style=&quot;background-color: transparent; color: light-dark(rgb(0, 0, 0), rgb(255, 255, 255)); font-size: 14px;&quot;&gt;Убрать кофейню&amp;nbsp;&lt;/span&gt;&lt;/div&gt;&lt;div style=&quot;&quot;&gt;&lt;span style=&quot;background-color: transparent; color: light-dark(rgb(0, 0, 0), rgb(255, 255, 255)); font-size: 14px;&quot;&gt;из списка избранных&lt;/span&gt;&lt;/div&gt;" style="ellipse;whiteSpace=wrap;html=1;align=center;" parent="1" vertex="1">
          <mxGeometry x="600" y="40" width="160" height="80" as="geometry" />
        </mxCell>
        <mxCell id="qsJK6AAeVhbRkGVkMpIS-7" value="&lt;span style=&quot;caret-color: rgb(0, 0, 0); text-align: start;&quot;&gt;&lt;font style=&quot;font-size: 14px;&quot; face=&quot;Helvetica&quot;&gt;Посмотреть&amp;nbsp;&lt;/font&gt;&lt;/span&gt;&lt;div&gt;&lt;span style=&quot;caret-color: rgb(0, 0, 0); text-align: start;&quot;&gt;&lt;font style=&quot;font-size: 14px;&quot; face=&quot;Helvetica&quot;&gt;список избранных кофеен&lt;/font&gt;&lt;/span&gt;&lt;/div&gt;" style="ellipse;whiteSpace=wrap;html=1;" parent="1" vertex="1">
          <mxGeometry x="200" y="220" width="160" height="80" as="geometry" />
        </mxCell>
        <mxCell id="qsJK6AAeVhbRkGVkMpIS-9" value="" style="endArrow=none;html=1;rounded=0;entryX=0;entryY=0.5;entryDx=0;entryDy=0;exitX=0;exitY=0.5;exitDx=0;exitDy=0;" parent="1" source="qsJK6AAeVhbRkGVkMpIS-7" target="qsJK6AAeVhbRkGVkMpIS-3" edge="1">
          <mxGeometry width="50" height="50" relative="1" as="geometry">
            <mxPoint x="200" y="350" as="sourcePoint" />
            <mxPoint x="160" y="170" as="targetPoint" />
            <Array as="points">
              <mxPoint x="160" y="260" />
              <mxPoint x="160" y="80" />
            </Array>
          </mxGeometry>
        </mxCell>
        <mxCell id="qsJK6AAeVhbRkGVkMpIS-10" value="" style="endArrow=none;html=1;rounded=0;" parent="1" edge="1">
          <mxGeometry width="50" height="50" relative="1" as="geometry">
            <mxPoint x="130" y="200" as="sourcePoint" />
            <mxPoint x="160" y="200" as="targetPoint" />
          </mxGeometry>
        </mxCell>
        <mxCell id="qsJK6AAeVhbRkGVkMpIS-13" value="" style="endArrow=none;html=1;rounded=0;entryX=0.5;entryY=1;entryDx=0;entryDy=0;exitX=1;exitY=0.5;exitDx=0;exitDy=0;endFill=1;startFill=1;startArrow=classicThin;edgeStyle=orthogonalEdgeStyle;curved=1;dashed=1;" parent="1" source="qsJK6AAeVhbRkGVkMpIS-7" target="qsJK6AAeVhbRkGVkMpIS-5" edge="1">
          <mxGeometry width="50" height="50" relative="1" as="geometry">
            <mxPoint x="360" y="350" as="sourcePoint" />
            <mxPoint x="310" y="420" as="targetPoint" />
            <Array as="points">
              <mxPoint x="480" y="260" />
            </Array>
          </mxGeometry>
        </mxCell>
        <mxCell id="qsJK6AAeVhbRkGVkMpIS-20" value="&amp;lt;&amp;lt;extend&amp;gt;&amp;gt;" style="edgeLabel;html=1;align=center;verticalAlign=middle;resizable=0;points=[];fontSize=6;" parent="qsJK6AAeVhbRkGVkMpIS-13" vertex="1" connectable="0">
          <mxGeometry x="0.034" y="-1" relative="1" as="geometry">
            <mxPoint x="-19" y="-21" as="offset" />
          </mxGeometry>
        </mxCell>
        <mxCell id="qsJK6AAeVhbRkGVkMpIS-21" value="" style="endArrow=none;html=1;rounded=0;entryX=0;entryY=0.5;entryDx=0;entryDy=0;exitX=1;exitY=0.5;exitDx=0;exitDy=0;endFill=1;startFill=1;startArrow=classicThin;edgeStyle=orthogonalEdgeStyle;curved=1;dashed=1;" parent="1" source="qsJK6AAeVhbRkGVkMpIS-3" target="qsJK6AAeVhbRkGVkMpIS-5" edge="1">
          <mxGeometry width="50" height="50" relative="1" as="geometry">
            <mxPoint x="373" y="160" as="sourcePoint" />
            <mxPoint x="413" y="120" as="targetPoint" />
            <Array as="points">
              <mxPoint x="390" y="80" />
              <mxPoint x="390" y="130" />
            </Array>
          </mxGeometry>
        </mxCell>
        <mxCell id="qsJK6AAeVhbRkGVkMpIS-22" value="&amp;lt;&amp;lt;extend&amp;gt;&amp;gt;" style="edgeLabel;html=1;align=center;verticalAlign=middle;resizable=0;points=[];fontSize=6;" parent="qsJK6AAeVhbRkGVkMpIS-21" vertex="1" connectable="0">
          <mxGeometry x="0.034" y="-1" relative="1" as="geometry">
            <mxPoint x="-7" y="-1" as="offset" />
          </mxGeometry>
        </mxCell>
        <mxCell id="qsJK6AAeVhbRkGVkMpIS-23" value="" style="endArrow=none;html=1;rounded=0;entryX=0;entryY=0.5;entryDx=0;entryDy=0;exitX=1;exitY=0.5;exitDx=0;exitDy=0;endFill=1;startFill=1;startArrow=classicThin;edgeStyle=orthogonalEdgeStyle;curved=1;dashed=1;" parent="1" source="qsJK6AAeVhbRkGVkMpIS-4" target="qsJK6AAeVhbRkGVkMpIS-5" edge="1">
          <mxGeometry width="50" height="50" relative="1" as="geometry">
            <mxPoint x="370" y="90" as="sourcePoint" />
            <mxPoint x="490" y="100" as="targetPoint" />
            <Array as="points">
              <mxPoint x="390" y="170" />
              <mxPoint x="390" y="130" />
            </Array>
          </mxGeometry>
        </mxCell>
        <mxCell id="qsJK6AAeVhbRkGVkMpIS-24" value="&amp;lt;&amp;lt;extend&amp;gt;&amp;gt;" style="edgeLabel;html=1;align=center;verticalAlign=middle;resizable=0;points=[];fontSize=6;" parent="qsJK6AAeVhbRkGVkMpIS-23" vertex="1" connectable="0">
          <mxGeometry x="0.034" y="-1" relative="1" as="geometry">
            <mxPoint x="-7" y="-1" as="offset" />
          </mxGeometry>
        </mxCell>
        <mxCell id="qsJK6AAeVhbRkGVkMpIS-25" value="" style="endArrow=none;html=1;rounded=0;entryX=0;entryY=0.5;entryDx=0;entryDy=0;exitX=0;exitY=0;exitDx=0;exitDy=0;endFill=1;startFill=1;startArrow=classicThin;edgeStyle=orthogonalEdgeStyle;curved=1;dashed=1;" parent="1" source="qsJK6AAeVhbRkGVkMpIS-7" target="qsJK6AAeVhbRkGVkMpIS-4" edge="1">
          <mxGeometry width="50" height="50" relative="1" as="geometry">
            <mxPoint x="370" y="270" as="sourcePoint" />
            <mxPoint x="410" y="230" as="targetPoint" />
          </mxGeometry>
        </mxCell>
        <mxCell id="qsJK6AAeVhbRkGVkMpIS-26" value="&amp;lt;&amp;lt;extend&amp;gt;&amp;gt;" style="edgeLabel;html=1;align=center;verticalAlign=middle;resizable=0;points=[];fontSize=6;" parent="qsJK6AAeVhbRkGVkMpIS-25" vertex="1" connectable="0">
          <mxGeometry x="0.034" y="-1" relative="1" as="geometry">
            <mxPoint x="4" y="-9" as="offset" />
          </mxGeometry>
        </mxCell>
        <mxCell id="qsJK6AAeVhbRkGVkMpIS-27" value="" style="endArrow=none;html=1;rounded=0;entryX=0;entryY=0.5;entryDx=0;entryDy=0;exitX=0;exitY=1;exitDx=0;exitDy=0;endFill=1;startFill=1;startArrow=classicThin;edgeStyle=orthogonalEdgeStyle;curved=1;dashed=1;" parent="1" source="qsJK6AAeVhbRkGVkMpIS-3" target="qsJK6AAeVhbRkGVkMpIS-4" edge="1">
          <mxGeometry width="50" height="50" relative="1" as="geometry">
            <mxPoint x="233" y="242" as="sourcePoint" />
            <mxPoint x="210" y="180" as="targetPoint" />
          </mxGeometry>
        </mxCell>
        <mxCell id="qsJK6AAeVhbRkGVkMpIS-28" value="&amp;lt;&amp;lt;extend&amp;gt;&amp;gt;" style="edgeLabel;html=1;align=center;verticalAlign=middle;resizable=0;points=[];fontSize=6;" parent="qsJK6AAeVhbRkGVkMpIS-27" vertex="1" connectable="0">
          <mxGeometry x="0.034" y="-1" relative="1" as="geometry">
            <mxPoint x="4" y="11" as="offset" />
          </mxGeometry>
        </mxCell>
        <mxCell id="qsJK6AAeVhbRkGVkMpIS-31" style="edgeStyle=orthogonalEdgeStyle;rounded=0;orthogonalLoop=1;jettySize=auto;html=1;exitX=0;exitY=0.5;exitDx=0;exitDy=0;entryX=0;entryY=0.5;entryDx=0;entryDy=0;endArrow=none;startFill=0;" parent="1" source="qsJK6AAeVhbRkGVkMpIS-29" target="qsJK6AAeVhbRkGVkMpIS-6" edge="1">
          <mxGeometry relative="1" as="geometry" />
        </mxCell>
        <mxCell id="qsJK6AAeVhbRkGVkMpIS-29" value="&lt;div style=&quot;&quot;&gt;&lt;span style=&quot;background-color: transparent; color: light-dark(rgb(0, 0, 0), rgb(255, 255, 255)); font-size: 14px;&quot;&gt;Добавить кофейню&amp;nbsp;&lt;/span&gt;&lt;/div&gt;&lt;div style=&quot;&quot;&gt;&lt;span style=&quot;background-color: transparent; color: light-dark(rgb(0, 0, 0), rgb(255, 255, 255)); font-size: 14px;&quot;&gt;в список избранных&lt;/span&gt;&lt;/div&gt;" style="ellipse;whiteSpace=wrap;html=1;align=center;" parent="1" vertex="1">
          <mxGeometry x="600" y="140" width="160" height="80" as="geometry" />
        </mxCell>
      </root>
    </mxGraphModel>
  </diagram>
  <diagram id="hFCzy-olFN2pyhXNab45" name="High-Arch">
    <mxGraphModel dx="2240" dy="1389" grid="1" gridSize="10" guides="1" tooltips="1" connect="1" arrows="1" fold="1" page="1" pageScale="1" pageWidth="1169" pageHeight="827" math="0" shadow="0">
      <root>
        <mxCell id="0" />
        <mxCell id="1" parent="0" />
        <mxCell id="71NEPyKdKrocMaA0fW-P-2" value="Пользователь" style="shape=umlActor;verticalLabelPosition=bottom;verticalAlign=top;html=1;outlineConnect=0;" vertex="1" parent="1">
          <mxGeometry x="-970" y="198.59" width="40" height="72.81" as="geometry" />
        </mxCell>
        <mxCell id="71NEPyKdKrocMaA0fW-P-3" value="&lt;div&gt;&lt;br&gt;&lt;/div&gt;&lt;div&gt;&lt;br&gt;&lt;/div&gt;«User Interface»&lt;br&gt;&lt;b&gt;Компонент&lt;/b&gt;&lt;div&gt;&lt;br&gt;&lt;/div&gt;&lt;div&gt;&lt;br&gt;&lt;/div&gt;&lt;div&gt;&lt;br&gt;&lt;/div&gt;&lt;div&gt;&lt;br&gt;&lt;/div&gt;&lt;div&gt;&lt;br&gt;&lt;/div&gt;&lt;div&gt;&lt;br&gt;&lt;/div&gt;&lt;div&gt;&lt;br&gt;&lt;/div&gt;&lt;div&gt;&lt;br&gt;&lt;/div&gt;&lt;div&gt;&lt;br&gt;&lt;/div&gt;&lt;div&gt;&lt;br&gt;&lt;/div&gt;&lt;div&gt;&lt;br&gt;&lt;/div&gt;&lt;div&gt;&lt;br&gt;&lt;/div&gt;&lt;div&gt;&lt;br&gt;&lt;/div&gt;&lt;div&gt;&lt;br&gt;&lt;/div&gt;&lt;div&gt;&lt;br&gt;&lt;/div&gt;&lt;div&gt;&lt;br&gt;&lt;/div&gt;&lt;div&gt;&lt;br&gt;&lt;/div&gt;&lt;div&gt;&lt;br&gt;&lt;/div&gt;&lt;div&gt;&lt;br&gt;&lt;/div&gt;&lt;div&gt;&lt;br&gt;&lt;/div&gt;&lt;div&gt;&lt;br&gt;&lt;/div&gt;&lt;div&gt;&lt;br&gt;&lt;/div&gt;&lt;div&gt;&lt;br&gt;&lt;/div&gt;&lt;div&gt;&lt;br&gt;&lt;/div&gt;&lt;div&gt;&lt;br&gt;&lt;/div&gt;" style="html=1;dropTarget=0;whiteSpace=wrap;" vertex="1" parent="1">
          <mxGeometry x="-880" y="60" width="620" height="380" as="geometry" />
        </mxCell>
        <mxCell id="71NEPyKdKrocMaA0fW-P-4" value="" style="shape=module;jettyWidth=8;jettyHeight=4;" vertex="1" parent="71NEPyKdKrocMaA0fW-P-3">
          <mxGeometry x="1" width="20" height="20" relative="1" as="geometry">
            <mxPoint x="-27" y="7" as="offset" />
          </mxGeometry>
        </mxCell>
        <mxCell id="71NEPyKdKrocMaA0fW-P-23" value="«API»&lt;br&gt;&lt;b&gt;Компонент&lt;/b&gt;" style="html=1;dropTarget=0;whiteSpace=wrap;" vertex="1" parent="1">
          <mxGeometry x="-240" y="342.25" width="180" height="55.5" as="geometry" />
        </mxCell>
        <mxCell id="71NEPyKdKrocMaA0fW-P-24" value="" style="shape=module;jettyWidth=8;jettyHeight=4;" vertex="1" parent="71NEPyKdKrocMaA0fW-P-23">
          <mxGeometry x="1" width="20" height="20" relative="1" as="geometry">
            <mxPoint x="-27" y="7" as="offset" />
          </mxGeometry>
        </mxCell>
        <mxCell id="71NEPyKdKrocMaA0fW-P-27" value="DTOs" style="html=1;whiteSpace=wrap;" vertex="1" parent="1">
          <mxGeometry x="-250" y="300" width="50" height="30" as="geometry" />
        </mxCell>
        <mxCell id="71NEPyKdKrocMaA0fW-P-28" value="" style="endArrow=none;dashed=1;html=1;dashPattern=1 3;strokeWidth=2;rounded=0;exitX=0.25;exitY=1;exitDx=0;exitDy=0;entryX=0;entryY=0;entryDx=20.5;entryDy=13;entryPerimeter=0;" edge="1" parent="1" source="71NEPyKdKrocMaA0fW-P-27" target="71NEPyKdKrocMaA0fW-P-17">
          <mxGeometry width="50" height="50" relative="1" as="geometry">
            <mxPoint x="-265" y="455" as="sourcePoint" />
            <mxPoint x="-240" y="375" as="targetPoint" />
          </mxGeometry>
        </mxCell>
        <mxCell id="71NEPyKdKrocMaA0fW-P-34" value="«View»&lt;br&gt;&lt;b&gt;Компонент&lt;/b&gt;&lt;div&gt;&lt;br&gt;&lt;/div&gt;&lt;div&gt;&lt;br&gt;&lt;/div&gt;&lt;div&gt;&lt;br&gt;&lt;/div&gt;&lt;div&gt;&lt;br&gt;&lt;/div&gt;&lt;div&gt;&lt;br&gt;&lt;/div&gt;&lt;div&gt;&lt;br&gt;&lt;/div&gt;" style="html=1;dropTarget=0;whiteSpace=wrap;" vertex="1" parent="1">
          <mxGeometry x="-870" y="155.5" width="170" height="130" as="geometry" />
        </mxCell>
        <mxCell id="71NEPyKdKrocMaA0fW-P-35" value="" style="shape=module;jettyWidth=8;jettyHeight=4;" vertex="1" parent="71NEPyKdKrocMaA0fW-P-34">
          <mxGeometry x="1" width="20" height="20" relative="1" as="geometry">
            <mxPoint x="-27" y="7" as="offset" />
          </mxGeometry>
        </mxCell>
        <mxCell id="71NEPyKdKrocMaA0fW-P-44" value="Views" style="rounded=0;whiteSpace=wrap;html=1;" vertex="1" parent="1">
          <mxGeometry x="-860" y="205.5" width="150" height="30" as="geometry" />
        </mxCell>
        <mxCell id="71NEPyKdKrocMaA0fW-P-45" value="ViewControllers" style="rounded=0;whiteSpace=wrap;html=1;" vertex="1" parent="1">
          <mxGeometry x="-860" y="245.5" width="150" height="30" as="geometry" />
        </mxCell>
        <mxCell id="71NEPyKdKrocMaA0fW-P-46" value="«Presenter»&lt;br&gt;&lt;b&gt;Компонент&lt;/b&gt;&lt;div&gt;&lt;b&gt;&lt;br&gt;&lt;/b&gt;&lt;/div&gt;&lt;div&gt;&lt;b&gt;&lt;br&gt;&lt;/b&gt;&lt;/div&gt;&lt;div&gt;&lt;br&gt;&lt;/div&gt;" style="html=1;dropTarget=0;whiteSpace=wrap;" vertex="1" parent="1">
          <mxGeometry x="-660" y="155.5" width="170" height="84.5" as="geometry" />
        </mxCell>
        <mxCell id="71NEPyKdKrocMaA0fW-P-47" value="" style="shape=module;jettyWidth=8;jettyHeight=4;" vertex="1" parent="71NEPyKdKrocMaA0fW-P-46">
          <mxGeometry x="1" width="20" height="20" relative="1" as="geometry">
            <mxPoint x="-27" y="7" as="offset" />
          </mxGeometry>
        </mxCell>
        <mxCell id="71NEPyKdKrocMaA0fW-P-48" value="«Model»&lt;br&gt;&lt;b&gt;Компонент&lt;/b&gt;&lt;div&gt;&lt;b&gt;&lt;br&gt;&lt;/b&gt;&lt;/div&gt;&lt;div&gt;&lt;b&gt;&lt;br&gt;&lt;/b&gt;&lt;/div&gt;&lt;div&gt;&lt;b&gt;&lt;br&gt;&lt;/b&gt;&lt;/div&gt;&lt;div&gt;&lt;b&gt;&lt;br&gt;&lt;/b&gt;&lt;/div&gt;&lt;div&gt;&lt;b&gt;&lt;br&gt;&lt;/b&gt;&lt;/div&gt;&lt;div&gt;&lt;b&gt;&lt;br&gt;&lt;/b&gt;&lt;/div&gt;&lt;div&gt;&lt;b&gt;&lt;br&gt;&lt;/b&gt;&lt;/div&gt;&lt;div&gt;&lt;br&gt;&lt;/div&gt;&lt;div&gt;&lt;br&gt;&lt;/div&gt;&lt;div&gt;&lt;br&gt;&lt;/div&gt;&lt;div&gt;&lt;br&gt;&lt;/div&gt;&lt;div&gt;&lt;br&gt;&lt;/div&gt;&lt;div&gt;&lt;br&gt;&lt;/div&gt;&lt;div&gt;&lt;br&gt;&lt;/div&gt;&lt;div&gt;&lt;br&gt;&lt;/div&gt;&lt;div&gt;&lt;br&gt;&lt;/div&gt;&lt;div&gt;&lt;br&gt;&lt;/div&gt;&lt;div&gt;&lt;br&gt;&lt;/div&gt;&lt;div&gt;&lt;br&gt;&lt;/div&gt;&lt;div&gt;&lt;br&gt;&lt;/div&gt;" style="html=1;dropTarget=0;whiteSpace=wrap;" vertex="1" parent="1">
          <mxGeometry x="-460" y="90" width="190" height="340" as="geometry" />
        </mxCell>
        <mxCell id="71NEPyKdKrocMaA0fW-P-49" value="" style="shape=module;jettyWidth=8;jettyHeight=4;" vertex="1" parent="71NEPyKdKrocMaA0fW-P-48">
          <mxGeometry x="1" width="20" height="20" relative="1" as="geometry">
            <mxPoint x="-27" y="7" as="offset" />
          </mxGeometry>
        </mxCell>
        <mxCell id="71NEPyKdKrocMaA0fW-P-50" value="Presentors" style="rounded=0;whiteSpace=wrap;html=1;" vertex="1" parent="1">
          <mxGeometry x="-650" y="200" width="150" height="30" as="geometry" />
        </mxCell>
        <mxCell id="71NEPyKdKrocMaA0fW-P-51" value="Repositories" style="rounded=0;whiteSpace=wrap;html=1;" vertex="1" parent="1">
          <mxGeometry x="-440" y="380" width="150" height="30" as="geometry" />
        </mxCell>
        <mxCell id="71NEPyKdKrocMaA0fW-P-52" value="Services" style="rounded=0;whiteSpace=wrap;html=1;" vertex="1" parent="1">
          <mxGeometry x="-441" y="220" width="150" height="30" as="geometry" />
        </mxCell>
        <mxCell id="71NEPyKdKrocMaA0fW-P-53" value="UseCases" style="rounded=0;whiteSpace=wrap;html=1;" vertex="1" parent="1">
          <mxGeometry x="-441" y="180" width="150" height="30" as="geometry" />
        </mxCell>
        <mxCell id="71NEPyKdKrocMaA0fW-P-54" value="NetworkClient" style="rounded=0;whiteSpace=wrap;html=1;" vertex="1" parent="1">
          <mxGeometry x="-441" y="340" width="150" height="30" as="geometry" />
        </mxCell>
        <mxCell id="71NEPyKdKrocMaA0fW-P-57" value="BLL" style="shape=umlFrame;whiteSpace=wrap;html=1;pointerEvents=0;" vertex="1" parent="1">
          <mxGeometry x="-451" y="140" width="170" height="120" as="geometry" />
        </mxCell>
        <mxCell id="71NEPyKdKrocMaA0fW-P-58" value="DAL" style="shape=umlFrame;whiteSpace=wrap;html=1;pointerEvents=0;" vertex="1" parent="1">
          <mxGeometry x="-451" y="300" width="170" height="120" as="geometry" />
        </mxCell>
        <mxCell id="71NEPyKdKrocMaA0fW-P-60" value="" style="shape=doubleArrow;whiteSpace=wrap;html=1;rotation=90;" vertex="1" parent="1">
          <mxGeometry x="-386" y="270" width="40" height="20" as="geometry" />
        </mxCell>
        <mxCell id="71NEPyKdKrocMaA0fW-P-17" value="" style="shape=doubleArrow;whiteSpace=wrap;html=1;" vertex="1" parent="1">
          <mxGeometry x="-281" y="360" width="41" height="20" as="geometry" />
        </mxCell>
        <mxCell id="71NEPyKdKrocMaA0fW-P-65" value="" style="shape=doubleArrow;whiteSpace=wrap;html=1;" vertex="1" parent="1">
          <mxGeometry x="-490" y="190.5" width="40" height="20" as="geometry" />
        </mxCell>
        <mxCell id="71NEPyKdKrocMaA0fW-P-70" value="" style="shape=doubleArrow;whiteSpace=wrap;html=1;" vertex="1" parent="1">
          <mxGeometry x="-700" y="190.5" width="40" height="20" as="geometry" />
        </mxCell>
        <mxCell id="71NEPyKdKrocMaA0fW-P-72" value="" style="shape=doubleArrow;whiteSpace=wrap;html=1;" vertex="1" parent="1">
          <mxGeometry x="-920" y="225" width="40" height="20" as="geometry" />
        </mxCell>
        <mxCell id="71NEPyKdKrocMaA0fW-P-74" value="DTOs" style="html=1;whiteSpace=wrap;" vertex="1" parent="1">
          <mxGeometry x="-690" y="265" width="50" height="30" as="geometry" />
        </mxCell>
        <mxCell id="71NEPyKdKrocMaA0fW-P-75" value="" style="endArrow=none;dashed=1;html=1;dashPattern=1 3;strokeWidth=2;rounded=0;exitX=0;exitY=0;exitDx=20;exitDy=13;entryX=0.5;entryY=0;entryDx=0;entryDy=0;exitPerimeter=0;" edge="1" parent="1" source="71NEPyKdKrocMaA0fW-P-70" target="71NEPyKdKrocMaA0fW-P-74">
          <mxGeometry width="50" height="50" relative="1" as="geometry">
            <mxPoint x="-227" y="340" as="sourcePoint" />
            <mxPoint x="-250" y="383" as="targetPoint" />
          </mxGeometry>
        </mxCell>
      </root>
    </mxGraphModel>
  </diagram>
</mxfile>
